<svg height="512" viewBox="0 0 61 60" width="512" xmlns="http://www.w3.org/2000/svg"><g id="Page-1" fill="none" fill-rule="evenodd"><g id="014---Fireplace" fill="rgb(0,0,0)" fill-rule="nonzero" transform="translate(0 -1)"><path id="Shape" d="m58 17h-16.23c.5611719-1.3639673.0691762-2.9341482-1.17-3.734l-.5-.33c-.2966927-.2287517-.6963591-.2724795-1.0354963-.1132945s-.5608512.4945777-.574439.8689695c-.0135879.3743919.1832298.7249745.5099353.908325l.5.328c.3130438.2093753.5006857.5613915.5.938-.0007364.4706796-.2934004.8915178-.7343949 1.0560281s-.9377796.0381713-1.2466051-.3170281l-2.679-3.123c2.3385279-1.8479276 3.2504537-4.97398333 2.2723176-7.78944049s-3.6317893-4.70277218-6.6123176-4.70277218-5.6341815 1.88731502-6.6123176 4.70277218-.0662103 5.94151289 2.2723176 7.78944049l-2.678 3.126c-.2872905.3302455-.7398158.4642713-1.1606135.3437426-.4207977-.1205288-.7337445-.4738082-.8026299-.9060728-.0688853-.4322646.1187523-.8653168.4812434-1.1106698l.5-.335c.3156656-.1887477.502245-.5355397.4858084-.9029636s-.2332361-.6961708-.5644942-.8559786c-.3312582-.1598078-.7235038-.1248805-1.0213142.0909422l-.5.332c-1.2401652.8000455-1.7322904 2.3714809-1.17 3.736h-16.23c-1.65685425 0-3 1.3431458-3 3v1c0 1.6568542 1.34314575 3 3 3v30.118c-1.77088936.4125937-3.03548592 1.9750089-3.07 3.793l-.02 1.051c-.01020459.5369861.19599552 1.055511.57218001 1.438843s.89073696.599254 1.42781999.599157h56c1.0868053-.0045323 1.9729608-.8725217 2-1.959l.02-.947c.0348105-1.8221147-1.1721194-3.4351991-2.93-3.916v-30.178c1.6568542 0 3-1.3431458 3-3v-1c0-1.6568542-1.3431458-3-3-3zm-32-9c0-2.76142375 2.2385763-5 5-5s5 2.23857625 5 5c0 2.7614237-2.2385763 5-5 5-2.7600532-.0033061-4.9966939-2.2399468-5-5zm2.42 6.5c1.6556539.6653582 3.5043461.6653582 5.16 0l2.141 2.5h-9.442zm30.58 6.5c0 .5522847-.4477153 1-1 1h-4c-.5522847 0-1 .4477153-1 1s.4477153 1 1 1h2v30h-10v-25c0-1.1045695-.8954305-2-2-2h-26c-1.1045695 0-2 .8954305-2 2v25h-4c-.5522847 0-1 .4477153-1 1s.4477153 1 1 1h44.976c.5328691.0063972 1.0406384.2274309 1.4084145.6130876.3677761.3856568.5644736.9033397.5455855 1.4359124l-.02.951h-56l.02-1.044c.01331738-.5344868.23934567-1.041568.62795144-1.4087723.38860577-.3672042.90766463-.5641764 1.44204856-.5472277h3c.55228475 0 1-.4477153 1-1s-.44771525-1-1-1h-2v-30h44c.5522847 0 1-.4477153 1-1s-.4477153-1-1-1h-46c-.55228475 0-1-.4477153-1-1v-1c0-.5522847.44771525-1 1-1h54c.5522847 0 1 .4477153 1 1zm-33.134 19.04c.505332-.0356731 1.0130066.0174635 1.5.157.3478437.0916742.7181222-.0105419.9696755-.2676806.2515534-.2571388.3456144-.6295724.2463245-.9753194-.1901194-.5463738-.3496992-1.1029002-.478-1.667-.4301623-1.8217177.4454174-3.7006778 2.117-4.543.457305-.2218149.9608689-.3315089 1.469-.32-.5245021.7058535-.7294115 1.5991132-.565 2.463.273 1.518 1.424 2.854 2.757 4.4 1.6 1.864 3.424 3.977 3.985 6.788.3753662 1.9170451-.070854 3.9036317-1.23 5.476.2113747-1.0092558.1513342-2.0565143-.174-3.035-.1899383-.6722995-.6407044-1.2407976-1.252-1.579-.2424544-.1298695-.5276957-.1541431-.7886082-.0671092s-.4744585.2776905-.5903918.5271092c.088572-.5732617.0993359-1.1558578.032-1.732-.2793929-1.8955051-1.3644256-3.5777433-2.976-4.614-.3566141-.264824-.8451735-.2626715-1.1994401.0052847-.3542667.2679561-.4893186.7374834-.3315599 1.1527153.7 1.84-.1 2.812-1.584 4.37-.378.4-.757.8-1.1 1.219-1.0517292 1.3310531-1.399273 3.0866332-.934 4.718-.8728025-.872398-1.4484086-1.9977167-1.645-3.216-.381-1.955.386-3.106 1.274-4.437.283-.425.576-.863.825-1.33.6307464-1.1184572.500378-2.5110463-.327-3.493zm2.449 13.3c-.988734-1.2470291-1.0210852-3.0013652-.079-4.284.307-.38.65-.74.991-1.1 1.0289997-.9221634 1.8043567-2.0927734 2.252-3.4.217465.4064121.3533486.8514311.4 1.31.213 2.114-.788 2.437-.96 2.7-.2117983.2057542-.3218333.4945955-.300617.7891175.0212164.2945219.1715149.5646096.410617.7378825.6144016.421765 1.3878627.5396257 2.1.32.5776682-.1593016 1.1094741-.4529599 1.552-.857.2575312 1.342093-.1603571 2.7250866-1.118 3.7-.227863.2572567-.4688501.5025829-.722.735h-3.859c-.237803-.2012824-.4607191-.4195197-.667-.653zm8.795.66c2.2863207-2.1126723 3.3161822-5.2582523 2.722-8.314-.664-3.327-2.752-5.753-4.43-7.7-1.142-1.326-2.128-2.471-2.3-3.451-.1429545-.5440326.1778851-1.101937.72-1.252.1-.026.243-.05.485-.091.4099201-.0736095.7313006-.3935719.8067222-.8031625s-.1109087-.8230423-.4677222-1.0378375c-1.5593874-1.0615557-3.5639774-1.219032-5.27-.414-2.4723904 1.2148047-3.8071938 3.9506784-3.243 6.647.023.151.053.3.088.445-1.1318586-.0268922-2.2344644.361154-3.1 1.091-.2593433.2170398-.3914211.5504518-.351065.8862145.0403561.3357628.2476779.6283815.551065.7777855.3094507.1253409.6101282.2713365.9.437.3961118.3452802.4848932.9261644.21 1.374-.2.379-.455.759-.723 1.16-1.3682337 1.6497553-1.9436286 3.8168083-1.574 5.928.277095 1.6448499 1.0736623 3.1577321 2.273 4.317h-6.407v-25h26v25z"/><path id="Shape" d="m9 25c-.55228475 0-1 .4477153-1 1v1c0 .5522847.44771525 1 1 1s1-.4477153 1-1v-1c0-.5522847-.44771525-1-1-1z"/><path id="Shape" d="m9 30c-.55228475 0-1 .4477153-1 1v11.891c0 .5522847.44771525 1 1 1s1-.4477153 1-1v-11.891c0-.5522847-.44771525-1-1-1z"/><path id="Shape" d="m32.293 10.707c.3923789.3789722 1.0160848.3735524 1.4018186-.0121814s.3911536-1.00943971.0121814-1.4018186l-1.707-1.707v-2.586c0-.55228475-.4477153-1-1-1s-1 .44771525-1 1v3c.0000566.26519481.1054506.51950727.293.707z"/></g></g></svg>