<?xml version="1.0" encoding="iso-8859-1"?>
<!-- Generator: Adobe Illustrator 19.0.0, SVG Export Plug-In . SVG Version: 6.00 Build 0)  -->
<svg version="1.1" id="Capa_1" xmlns="http://www.w3.org/2000/svg" xmlns:xlink="http://www.w3.org/1999/xlink" x="0px" y="0px"
	 viewBox="0 0 512 512" style="enable-background:new 0 0 512 512;" xml:space="preserve">
<g>
	<g>
		<g>
			<path d="M504,304H344v-16h8c4.418,0,8-3.582,8-8s-3.582-8-8-8h-8v-8c0-17.673,14.327-32,32-32c17.673,0,32,14.327,32,32
				c0,4.418,3.582,8,8,8s8-3.582,8-8c0-26.51-21.49-48-48-48c-26.51,0-48,21.49-48,48v40H193.76c3.995-4.373,6.219-10.077,6.24-16
				v-48c0-4.418-3.582-8-8-8H72c-4.418,0-8,3.582-8,8v48c0.021,5.923,2.245,11.627,6.24,16H8c-4.418,0-8,3.582-8,8v192
				c0,4.418,3.582,8,8,8h496c4.418,0,8-3.582,8-8V312C512,307.582,508.418,304,504,304z M80,248h104v40c0,4.418-3.582,8-8,8H88
				c-4.418,0-8-3.582-8-8V248z M128,496H16v-96h112V496z M128,384H16v-64h24c0,4.418,3.582,8,8,8h48c4.418,0,8-3.582,8-8h24V384z
				 M368,496H144V320h224V496z M496,496H384v-96h112V496z M496,384H384v-64h24c0,4.418,3.582,8,8,8h48c4.418,0,8-3.582,8-8h24V384z"
				/>
			<path d="M160,440h192c4.418,0,8-3.582,8-8v-80c0-4.418-3.582-8-8-8H160c-4.418,0-8,3.582-8,8v80C152,436.418,155.582,440,160,440
				z M168,360h176v64H168V360z"/>
			<path d="M304,464h-96c-4.418,0-8,3.582-8,8s3.582,8,8,8h96c4.418,0,8-3.582,8-8S308.418,464,304,464z"/>
			<path d="M88,120h336c4.418,0,8-3.582,8-8V8c0-4.418-3.582-8-8-8H88c-4.418,0-8,3.582-8,8v104C80,116.418,83.582,120,88,120z
				 M264,16h152v88H264V16z M96,16h152v88H96V16z"/>
			<path d="M200,56h-64c-4.418,0-8,3.582-8,8s3.582,8,8,8h64c4.418,0,8-3.582,8-8S204.418,56,200,56z"/>
			<path d="M376,56h-64c-4.418,0-8,3.582-8,8s3.582,8,8,8h64c4.418,0,8-3.582,8-8S380.418,56,376,56z"/>
			<path d="M91.2,197.6c-6.631,3.818-10.854,10.756-11.2,18.4c0,4.418,3.582,8,8,8s8-3.582,8-8c0-1.688,0.8-2.576,4.8-5.6
				c6.631-3.818,10.854-10.756,11.2-18.4c-0.346-7.644-4.569-14.582-11.2-18.4c-4.04-3.032-4.8-3.92-4.8-5.6s0.8-2.56,4.8-5.6
				c6.631-3.818,10.854-10.756,11.2-18.4c0-4.418-3.582-8-8-8s-8,3.582-8,8c0,1.672-0.8,2.56-4.8,5.6
				c-6.631,3.818-10.854,10.756-11.2,18.4c0.346,7.644,4.569,14.582,11.2,18.4c4,3.032,4.8,3.92,4.8,5.6S95.2,194.56,91.2,197.6z"/>
			<path d="M140.8,162.4c6.631-3.818,10.854-10.756,11.2-18.4c0-4.418-3.582-8-8-8s-8,3.582-8,8c0,1.672-0.8,2.56-4.8,5.6
				c-6.631,3.818-10.854,10.756-11.2,18.4c0.346,7.644,4.569,14.582,11.2,18.4c4,3.032,4.8,3.92,4.8,5.6s-0.8,2.576-4.8,5.6
				c-6.631,3.818-10.854,10.756-11.2,18.4c0,4.418,3.582,8,8,8s8-3.582,8-8c0-1.688,0.8-2.576,4.8-5.6
				c6.631-3.818,10.854-10.756,11.2-18.4c-0.346-7.644-4.569-14.582-11.2-18.4c-4-3.032-4.8-3.92-4.8-5.6S136.8,165.416,140.8,162.4
				z"/>
			<path d="M180.8,162.4c6.631-3.818,10.854-10.756,11.2-18.4c0-4.418-3.582-8-8-8s-8,3.582-8,8c0,1.672-0.8,2.56-4.8,5.6
				c-6.631,3.818-10.854,10.756-11.2,18.4c0.346,7.644,4.569,14.582,11.2,18.4c4,3.032,4.8,3.92,4.8,5.6s-0.8,2.576-4.8,5.6
				c-6.631,3.818-10.854,10.756-11.2,18.4c0,4.418,3.582,8,8,8s8-3.582,8-8c0-1.688,0.8-2.576,4.8-5.6
				c6.631-3.818,10.854-10.756,11.2-18.4c-0.346-7.644-4.569-14.582-11.2-18.4c-4-3.032-4.8-3.92-4.8-5.6S176.8,165.416,180.8,162.4
				z"/>
		</g>
	</g>
</g>
<g>
</g>
<g>
</g>
<g>
</g>
<g>
</g>
<g>
</g>
<g>
</g>
<g>
</g>
<g>
</g>
<g>
</g>
<g>
</g>
<g>
</g>
<g>
</g>
<g>
</g>
<g>
</g>
<g>
</g>
</svg>
