<svg id="Capa_1" enable-background="new 0 0 512 512" height="512" viewBox="0 0 512 512" width="512" xmlns="http://www.w3.org/2000/svg"><g><path d="m451 75c0-41.355-33.645-75-75-75h-240c-41.355 0-75 33.645-75 75 0 36.219 25.808 66.522 60 73.491v16.509c0 19.555 12.541 36.228 30 42.42v274.58h-15c-8.284 0-15 6.716-15 15s6.716 15 15 15h240c8.284 0 15-6.716 15-15s-6.716-15-15-15h-15v-274.58c17.459-6.192 30-22.865 30-42.42v-16.509c34.192-6.969 60-37.272 60-73.491zm-270 407v-272h150v272zm180-317c0 8.271-6.729 15-15 15h-180c-8.271 0-15-6.729-15-15v-15h210zm15-45c-8.271 0-15-6.729-15-15s6.729-15 15-15c8.284 0 15-6.716 15-15s-6.716-15-15-15c-24.813 0-45 20.187-45 45 0 5.258.915 10.305 2.58 15h-155.16c1.665-4.695 2.58-9.742 2.58-15 0-24.813-20.187-45-45-45-8.284 0-15 6.716-15 15s6.716 15 15 15c8.271 0 15 6.729 15 15s-6.729 15-15 15c-24.813 0-45-20.187-45-45s20.187-45 45-45h240c24.813 0 45 20.187 45 45s-20.187 45-45 45z"/><path d="m226 240c-8.284 0-15 6.716-15 15v182c0 8.284 6.716 15 15 15s15-6.716 15-15v-182c0-8.284-6.716-15-15-15z"/><path d="m286 240c-8.284 0-15 6.716-15 15v182c0 8.284 6.716 15 15 15s15-6.716 15-15v-182c0-8.284-6.716-15-15-15z"/></g></svg>