<svg height="512" viewBox="0 0 512 512" width="512" xmlns="http://www.w3.org/2000/svg"><g id="Out_line" data-name="Out line"><path d="m392 16h-272a24.0275 24.0275 0 0 0 -24 24v408a24.0275 24.0275 0 0 0 24 24h16v16a8.00039 8.00039 0 0 0 8 8h32a8.00039 8.00039 0 0 0 8-8v-16h144v16a8.00039 8.00039 0 0 0 8 8h32a8.00039 8.00039 0 0 0 8-8v-16h16a24.0275 24.0275 0 0 0 24-24v-408a24.0275 24.0275 0 0 0 -24-24zm8 24v256h-136v-264h128a8.00917 8.00917 0 0 1 8 8zm-280-8h128v264h-136v-256a8.00917 8.00917 0 0 1 8-8zm48 448h-16v-8h16zm192 0h-16v-8h16zm32-24h-272a8.00917 8.00917 0 0 1 -8-8v-136h288v136a8.00917 8.00917 0 0 1 -8 8z"/><path d="m292 272a20.02229 20.02229 0 0 0 20-20v-168a20 20 0 0 0 -40 0v168a20.02229 20.02229 0 0 0 20 20zm-4-188a4 4 0 0 1 8 0v168a4 4 0 0 1 -8 0z"/><path d="m220 272a20.02229 20.02229 0 0 0 20-20v-168a20 20 0 0 0 -40 0v168a20.02229 20.02229 0 0 0 20 20zm-4-188a4 4 0 0 1 8 0v168a4 4 0 0 1 -8 0z"/><path d="m128 216h56a8.00039 8.00039 0 0 0 8-8v-88a8.00039 8.00039 0 0 0 -8-8h-56a8.00039 8.00039 0 0 0 -8 8v88a8.00039 8.00039 0 0 0 8 8zm8-88h3.05566l4.94434 9.88867v22.11133a8.00039 8.00039 0 0 0 8 8h8a8.00039 8.00039 0 0 0 8-8v-22.11133l4.94434-9.88867h3.05566v72h-40z"/><path d="m340 320h-168a20 20 0 0 0 0 40h168a20 20 0 0 0 0-40zm0 24h-168a4 4 0 0 1 0-8h168a4 4 0 0 1 0 8z"/></g></svg>