<svg id="Capa_1" enable-background="new 0 0 512 512" height="512" viewBox="0 0 512 512" width="512" xmlns="http://www.w3.org/2000/svg"><g><path d="m345.345 463.504h15v-44.011h136.655v44.011h15v-126.51h-166.655zm151.655-111.51v52.5h-136.655v-52.5z"/><path d="m482 140.339c-16.542 0-30 13.458-30 30v24.155h15v-24.154c0-8.271 6.729-15 15-15h15v166.655h15v-181.656z"/><path d="m345.345 321.995h15c0-8.271 6.729-15 15-15h106.655v-15h-15v-82.499h-15v82.499h-76.655c-16.542-.001-30 13.457-30 30z"/><path d="m15 155.339h15c8.271 0 15 6.729 15 15v24.155h15v-24.154c0-16.542-13.458-30-30-30h-30v181.655h15z"/><path d="m136.655 291.994h-76.655v-82.499h-15v82.499h-15v15h106.655c8.271 0 15 6.729 15 15h15c0-16.542-13.458-30-30-30z"/><path d="m0 463.504h15v-44.011h136.655v44.011h15v-126.51h-166.655zm151.655-111.51v52.5h-136.655v-52.5z"/><path d="m286 433.504v-164.009c0-8.271 6.729-15 15-15h121v-60h-158.5v15h143.5v30h-302.001v-30h143.501v-15h-158.501v60h121.001c8.271 0 15 6.729 15 15v164.009c0 8.271-6.729 15-15 15h-30v15h30 90 30v-15h-30c-8.271 0-15-6.729-15-15zm-49.036-179.009h38.072c-2.561 4.416-4.036 9.538-4.036 15v164.009c0 5.462 1.475 10.584 4.036 15h-38.072c2.561-4.416 4.036-9.538 4.036-15v-164.009c0-5.462-1.475-10.584-4.036-15z"/><path d="m371.483 164.496h-22.8c-3.636-45.588-40.111-82.064-85.699-85.699v-15.301h15v-15h-45v15h15v15.302c-23.975 1.934-46.438 13.079-62.521 31.243l11.23 9.943c14.905-16.834 36.333-26.489 58.79-26.489 40.755 0 74.344 31.221 78.133 71h-156.267c1.133-11.877 4.941-23.339 11.195-33.519l-12.781-7.852c-7.705 12.543-12.294 26.715-13.467 41.371h-22.812v15h231.999z"/><path d="m309.114 137.973c-10.101-15.895-26.559-26.435-45.154-28.916l-1.984 14.868c14.193 1.894 26.761 9.946 34.479 22.093z"/><path d="m247.009 109.057c-6.12.817-12.069 2.519-17.684 5.059l6.184 13.666c4.279-1.936 8.816-3.234 13.484-3.857z"/></g></svg>