<svg id="Capa_1" enable-background="new 0 0 510 510" height="512" viewBox="0 0 510 510" width="512" xmlns="http://www.w3.org/2000/svg"><path d="m503 94.2v-34.95c0-10.891-8.86-19.75-19.75-19.75h-362.25c-4.142 0-7.5 3.357-7.5 7.5s3.358 7.5 7.5 7.5h362.25c2.619 0 4.75 2.131 4.75 4.75v32.25h-466v-32.25c0-2.619 2.131-4.75 4.75-4.75h60.25c4.142 0 7.5-3.357 7.5-7.5s-3.358-7.5-7.5-7.5h-60.25c-10.89 0-19.75 8.859-19.75 19.75v34.95c-4.219 2.847-7 7.671-7 13.133v18.334c0 8.73 7.103 15.833 15.833 15.833h138.396l26.532 89.038c2.791 9.386 10.636 16.372 19.989 18.366v116.596h-101.5c-10.339 0-18.75 8.411-18.75 18.75v24.5c0 10.339 8.411 18.75 18.75 18.75h.902c-.101 1.159-.152 2.326-.152 3.5 0 21.78 17.72 39.5 39.5 39.5s39.5-17.72 39.5-39.5c0-1.174-.051-2.341-.152-3.5h22.152c4.142 0 7.5-3.357 7.5-7.5s-3.358-7.5-7.5-7.5h-101.75c-2.068 0-3.75-1.683-3.75-3.75v-24.5c0-2.067 1.682-3.75 3.75-3.75h311.5c2.068 0 3.75 1.683 3.75 3.75v24.5c0 2.067-1.682 3.75-3.75 3.75h-175.75c-4.142 0-7.5 3.357-7.5 7.5s3.358 7.5 7.5 7.5h96.152c-.101 1.159-.152 2.326-.152 3.5 0 21.78 17.72 39.5 39.5 39.5s39.5-17.72 39.5-39.5c0-1.174-.051-2.341-.152-3.5h.902c10.339 0 18.75-8.411 18.75-18.75v-24.5c0-10.339-8.411-18.75-18.75-18.75h-101.5v-66.5c0-4.143-3.358-7.5-7.5-7.5s-7.5 3.357-7.5 7.5v66.5h-78.5v-116h78.5v15.5c0 4.143 3.358 7.5 7.5 7.5s7.5-3.357 7.5-7.5v-16.096c9.353-1.994 17.197-8.979 19.987-18.362l26.534-89.042h138.396c8.73 0 15.833-7.103 15.833-15.833v-18.334c0-5.462-2.781-10.286-7-13.133zm-339 336.8c0 13.51-10.991 24.5-24.5 24.5s-24.5-10.99-24.5-24.5c0-1.183.104-2.348.268-3.5h48.465c.163 1.152.267 2.317.267 3.5zm231 0c0 13.51-10.991 24.5-24.5 24.5s-24.5-10.99-24.5-24.5c0-1.183.104-2.348.268-3.5h48.465c.163 1.152.267 2.317.267 3.5zm-80.139-204.737c-1.465 4.927-5.91 8.237-11.061 8.237h-97.6c-5.151 0-9.596-3.311-11.063-8.241l-25.257-84.759h170.24zm180.139-100.596c0 .459-.374.833-.833.833h-478.334c-.459 0-.833-.374-.833-.833v-18.334c0-.459.374-.833.833-.833h478.333c.459 0 .833.374.833.833v18.334z"/></svg>