<?xml version="1.0" encoding="iso-8859-1"?>
<!-- Generator: Adobe Illustrator 19.0.0, SVG Export Plug-In . SVG Version: 6.00 Build 0)  -->
<svg version="1.1" id="Capa_1" xmlns="http://www.w3.org/2000/svg" xmlns:xlink="http://www.w3.org/1999/xlink" x="0px" y="0px"
	 viewBox="0 0 512 512" style="enable-background:new 0 0 512 512;" xml:space="preserve">
<g>
	<g>
		<g>
			<path d="M486.4,0H25.6C11.468,0.015,0.015,11.468,0,25.6v460.8c0.015,14.132,11.468,25.585,25.6,25.6h460.8
				c14.132-0.015,25.585-11.468,25.6-25.6V25.6C511.985,11.468,500.532,0.015,486.4,0z M494.933,486.4
				c-0.006,4.71-3.823,8.527-8.533,8.533H25.6c-4.71-0.006-8.527-3.823-8.533-8.533V25.6c0.006-4.71,3.823-8.527,8.533-8.533h460.8
				c4.71,0.006,8.527,3.823,8.533,8.533V486.4z"/>
			<path d="M469.333,34.133H42.667c-4.713,0-8.533,3.82-8.533,8.533v426.667c0,4.713,3.82,8.533,8.533,8.533h426.667
				c4.713,0,8.533-3.82,8.533-8.533V42.667C477.867,37.954,474.046,34.133,469.333,34.133z M298.667,51.2h93.867v17.067h-93.867
				V51.2z M341.333,324.267H256v-34.133h85.333V324.267z M392.533,341.333v34.133h-76.638c-20.184-9.561-39.43-20.988-57.486-34.133
				H392.533z M191.146,273.067c-1.148,0-2.283,0.232-3.339,0.683c-8.757-11.115-16.844-22.741-24.22-34.816H281.6v34.133H191.146z
				 M238.933,290.133v36.145c-13.252-11.138-25.684-23.218-37.198-36.145H238.933z M170.667,136.533v34.133h-39.556
				c-3.93-11.197-7.278-22.59-10.032-34.133H170.667z M117.542,119.467c-2.141-11.366-3.932-22.774-5.006-34.133h23.998v34.133
				H117.542z M238.933,119.467H153.6V85.333h85.333V119.467z M281.6,136.533v34.133h-93.867v-34.133H281.6z M238.933,187.733v34.133
				h-84.821c-0.129,0-0.235,0.067-0.362,0.073c-5.985-11.107-11.373-22.525-16.141-34.206H238.933z M298.667,273.067v-34.133h93.867
				v34.133H298.667z M341.333,221.867H256v-34.133h85.333V221.867z M298.667,170.667v-34.133h93.867v34.133H298.667z
				 M341.333,119.467H256V85.333h85.333V119.467z M187.733,51.2H281.6v17.067h-93.867V51.2z M170.667,51.2v17.067h-59.336
				c-0.26-5.672-0.397-11.373-0.397-17.067H170.667z M460.8,460.8H51.2V51.2h42.667c0,11.696,0.529,23.442,1.575,34.921
				c1.645,17.64,4.47,35.15,8.454,52.413c0.092,0.396,0.214,0.784,0.362,1.162c4.136,17.497,9.563,34.664,16.237,51.358
				c7.244,18.146,15.89,35.7,25.858,52.504c11.034,18.589,23.681,36.173,37.796,52.546c16.562,19.308,35.027,36.896,55.117,52.5
				c63.567,49.072,141.243,76.374,221.533,77.867V460.8z M460.8,409.405c-34.433-0.742-68.581-6.424-101.398-16.872H460.8V409.405z
				 M460.8,375.467h-51.2v-34.133h51.2V375.467z M460.8,324.267H358.4v-34.133h102.4V324.267z M460.8,273.067h-51.2v-34.133h51.2
				V273.067z M460.8,221.867H358.4v-34.133h102.4V221.867z M460.8,170.667h-51.2v-34.133h51.2V170.667z M460.8,119.467H358.4V85.333
				h102.4V119.467z M460.8,68.267h-51.2V51.2h51.2V68.267z"/>
		</g>
	</g>
</g>
<g>
</g>
<g>
</g>
<g>
</g>
<g>
</g>
<g>
</g>
<g>
</g>
<g>
</g>
<g>
</g>
<g>
</g>
<g>
</g>
<g>
</g>
<g>
</g>
<g>
</g>
<g>
</g>
<g>
</g>
</svg>
